# Blender 4.4.0
# www.blender.org
mtllib table.mtl
o DiningTable6Seat
v 0.000000 0.000000 -0.000000
v 0.000000 15.240000 -0.000000
v 0.000000 13.207999 -2.032000
v 0.000000 0.000000 -2.032000
v 2.032000 0.000000 0.000000
v 2.032000 13.207999 0.000000
v 2.032000 0.000000 -2.032000
v 0.000000 13.207999 -13.207999
v 0.000000 15.240000 -15.240000
v 30.480000 15.240000 -0.000000
v 2.032000 13.207999 -2.032000
v 28.448000 13.207999 -0.000000
v 2.032000 13.207999 -13.207999
v 0.000000 0.000000 -13.207999
v 0.000000 0.000000 -15.240000
v 2.032000 0.000000 -13.207999
v 30.480000 15.240000 -15.240000
v 28.448000 13.207999 -15.240000
v 2.032000 13.207999 -15.240000
v 30.480000 0.000000 -0.000000
v 30.480000 13.207999 -2.032000
v 28.448000 0.000000 -0.000000
v 28.448000 0.000000 -2.032000
v 28.448000 13.207999 -2.032000
v 2.032000 0.000000 -15.240000
v 30.480000 0.000000 -15.240000
v 30.480000 13.207999 -13.207999
v 28.448000 0.000000 -15.240000
v 28.448000 0.000000 -13.207999
v 28.448000 13.207999 -13.207999
v 30.480000 0.000000 -2.032000
v 30.480000 0.000000 -13.207999
vn -1.0000 -0.0000 -0.0000
vn -0.0000 -0.0000 1.0000
vn -0.0000 -1.0000 -0.0000
vn -0.0000 1.0000 -0.0000
vn -0.0000 -0.0000 -1.0000
vn 1.0000 -0.0000 -0.0000
vt 0.424528 0.824948
vt 0.424528 0.636268
vt 0.462264 0.661426
vt 0.462264 0.824948
vt 0.424528 0.183438
vt 0.056604 0.183438
vt 0.424528 0.166667
vt 0.000000 0.166667
vt 0.113208 0.669811
vt 0.113208 0.694969
vt 0.075472 0.694969
vt 0.075472 0.669811
vt 0.669811 0.661426
vt 0.707547 0.636268
vt 0.000000 0.418239
vt 0.424528 0.669811
vt -0.000000 0.669811
vt 0.000000 0.418239
vt 0.924528 0.330189
vt 0.886792 0.330189
vt 0.886792 0.166667
vt 0.924528 0.166667
vt 0.849057 0.493711
vt 0.886792 0.493711
vt 0.886792 0.632075
vt 0.924528 0.493711
vt 0.886792 0.493711
vt 0.886792 0.330189
vt 0.924528 0.330189
vt 0.056604 0.401468
vt 0.849057 0.418239
vt 0.849057 0.636268
vt 0.481132 0.636268
vt 0.669811 0.824948
vt 0.707547 0.824948
vt 0.962264 0.166667
vt 0.962264 0.330189
vt 0.924528 0.166667
vt 0.849057 0.632075
vt 0.424528 0.418239
vt 0.481132 0.183438
vt 0.481132 0.401468
vt 0.424528 0.418239
vt 0.424528 0.166667
vt 0.849057 0.418239
vt 0.424528 0.418239
vt 0.952830 0.661426
vt 0.707547 0.636268
vt 0.990566 0.636268
vt 0.990566 0.824948
vt 0.424528 0.401468
vt 0.962264 0.493711
vt 0.924528 0.493711
vt 0.792453 0.418239
vt 0.886792 0.166667
vt 0.849057 0.330189
vt 0.849057 0.166667
vt 0.075472 0.669811
vt 0.037736 0.694969
vt 0.037736 0.669811
vt 0.849057 0.401468
vt 0.849057 0.166667
vt 0.745283 0.661426
vt 0.707547 0.824948
vt 0.849057 0.183438
vt 0.424528 0.418239
vt 0.849057 0.493711
vt 0.886792 0.493711
vt 0.952830 0.824948
vt 0.188679 0.669811
vt 0.150943 0.694969
vt 0.150943 0.669811
vt 0.886793 0.493711
vt 0.924528 0.493711
vt 0.924528 0.632075
vt 0.886793 0.632075
vt -0.000000 0.833333
vt -0.000000 0.669811
vt 0.037736 0.669811
vt 0.037736 0.833333
vt 0.188679 0.694969
vt 0.745283 0.824948
vt 0.150943 0.669811
vt 0.150943 0.694969
vt 0.113208 0.694969
vt 0.113208 0.669811
vt 1.000000 0.166667
vt 1.000000 0.330189
s 0
usemtl 1
f 1/1/1 2/2/1 3/3/1
f 1/1/1 3/3/1 4/4/1
f 5/5/2 6/6/2 1/7/2
f 1/7/2 6/6/2 2/8/2
f 1/9/3 4/10/3 7/11/3
f 1/9/3 7/11/3 5/12/3
f 8/13/1 3/3/1 2/2/1
f 8/13/1 2/2/1 9/14/1
f 6/6/2 10/15/2 2/8/2
f 9/16/4 2/17/4 10/18/4
f 7/19/5 4/20/5 3/21/5
f 7/19/5 3/21/5 11/22/5
f 11/23/3 3/24/3 8/25/3
f 5/26/6 7/27/6 11/28/6
f 5/26/6 11/28/6 6/29/6
f 6/6/2 12/30/2 10/15/2
f 12/31/3 6/32/3 13/33/3
f 14/34/1 8/13/1 15/35/1
f 15/35/1 8/13/1 9/14/1
f 8/36/2 14/37/2 16/29/2
f 8/36/2 16/29/2 13/38/2
f 11/23/3 8/25/3 13/39/3
f 9/16/4 10/18/4 17/40/4
f 18/41/5 19/42/5 9/43/5
f 18/41/5 9/43/5 17/44/5
f 15/45/5 9/43/5 19/42/5
f 20/46/2 10/15/2 12/30/2
f 21/47/6 17/48/6 10/49/6
f 20/50/6 21/47/6 10/49/6
f 20/46/2 12/30/2 22/51/2
f 23/52/1 22/53/1 12/19/1
f 23/52/1 12/19/1 24/37/1
f 24/54/3 12/31/3 13/33/3
f 13/55/6 16/28/6 25/56/6
f 13/55/6 25/56/6 19/57/6
f 24/54/3 13/33/3 19/2/3
f 14/58/3 15/11/3 25/59/3
f 14/58/3 25/59/3 16/60/3
f 15/45/5 19/42/5 25/61/5
f 26/62/5 18/41/5 17/44/5
f 21/47/6 27/63/6 17/48/6
f 26/64/6 17/48/6 27/63/6
f 28/65/5 18/41/5 26/62/5
f 24/54/3 19/2/3 18/66/3
f 29/67/1 30/56/1 18/20/1
f 29/67/1 18/20/1 28/68/1
f 31/69/6 21/47/6 20/50/6
f 22/70/3 31/71/3 20/72/3
f 21/73/3 24/74/3 30/75/3
f 21/73/3 30/75/3 27/76/3
f 23/77/5 24/78/5 21/79/5
f 23/77/5 21/79/5 31/80/5
f 22/70/3 23/81/3 31/71/3
f 26/64/6 27/63/6 32/82/6
f 29/83/3 28/84/3 26/85/3
f 29/83/3 26/85/3 32/86/3
f 30/87/2 32/37/2 27/36/2
f 30/87/2 29/88/2 32/37/2
